<svg width="14" height="14" viewBox="0 0 14 14" fill="none" xmlns="http://www.w3.org/2000/svg">
<path d="M7.00004 10.3334C7.18893 10.3334 7.34726 10.2695 7.47504 10.1417C7.60282 10.0139 7.66671 9.8556 7.66671 9.66671C7.66671 9.47782 7.60282 9.31949 7.47504 9.19171C7.34726 9.06393 7.18893 9.00004 7.00004 9.00004C6.81115 9.00004 6.65282 9.06393 6.52504 9.19171C6.39726 9.31949 6.33337 9.47782 6.33337 9.66671C6.33337 9.8556 6.39726 10.0139 6.52504 10.1417C6.65282 10.2695 6.81115 10.3334 7.00004 10.3334ZM7.00004 7.66671C7.18893 7.66671 7.34726 7.60282 7.47504 7.47504C7.60282 7.34726 7.66671 7.18893 7.66671 7.00004V4.33337C7.66671 4.14449 7.60282 3.98615 7.47504 3.85837C7.34726 3.7306 7.18893 3.66671 7.00004 3.66671C6.81115 3.66671 6.65282 3.7306 6.52504 3.85837C6.39726 3.98615 6.33337 4.14449 6.33337 4.33337V7.00004C6.33337 7.18893 6.39726 7.34726 6.52504 7.47504C6.65282 7.60282 6.81115 7.66671 7.00004 7.66671ZM7.00004 13.6667C6.07782 13.6667 5.21115 13.4917 4.40004 13.1417C3.58893 12.7917 2.88337 12.3167 2.28337 11.7167C1.68337 11.1167 1.20837 10.4112 0.858374 9.60004C0.508374 8.78893 0.333374 7.92226 0.333374 7.00004C0.333374 6.07782 0.508374 5.21115 0.858374 4.40004C1.20837 3.58893 1.68337 2.88337 2.28337 2.28337C2.88337 1.68337 3.58893 1.20837 4.40004 0.858374C5.21115 0.508374 6.07782 0.333374 7.00004 0.333374C7.92226 0.333374 8.78893 0.508374 9.60004 0.858374C10.4112 1.20837 11.1167 1.68337 11.7167 2.28337C12.3167 2.88337 12.7917 3.58893 13.1417 4.40004C13.4917 5.21115 13.6667 6.07782 13.6667 7.00004C13.6667 7.92226 13.4917 8.78893 13.1417 9.60004C12.7917 10.4112 12.3167 11.1167 11.7167 11.7167C11.1167 12.3167 10.4112 12.7917 9.60004 13.1417C8.78893 13.4917 7.92226 13.6667 7.00004 13.6667Z" fill="currentColor"/>
</svg>
