<svg width="20" height="20" viewBox="0 0 20 20" fill="none" xmlns="http://www.w3.org/2000/svg">
<mask id="mask0_823_1680" style="mask-type:alpha" maskUnits="userSpaceOnUse" x="0" y="0" width="20" height="20">
<rect width="20" height="20" fill="white"/>
</mask>
<g mask="url(#mask0_823_1680)">
<path d="M9.06266 16.0834L3.56266 10.5834C3.47933 10.5001 3.4203 10.4098 3.38558 10.3126C3.35086 10.2154 3.3335 10.1112 3.3335 10.0001C3.3335 9.88898 3.35086 9.78481 3.38558 9.68759C3.4203 9.59037 3.47933 9.50009 3.56266 9.41676L9.06266 3.91676C9.21544 3.76398 9.40641 3.68412 9.63558 3.67717C9.86475 3.67023 10.0627 3.75009 10.2293 3.91676C10.396 4.06954 10.4828 4.26051 10.4897 4.48967C10.4967 4.71884 10.4168 4.91676 10.2502 5.08342L6.16683 9.16676H15.4793C15.7154 9.16676 15.9134 9.24662 16.0731 9.40634C16.2328 9.56606 16.3127 9.76398 16.3127 10.0001C16.3127 10.2362 16.2328 10.4341 16.0731 10.5938C15.9134 10.7536 15.7154 10.8334 15.4793 10.8334H6.16683L10.2502 14.9168C10.4029 15.0695 10.4828 15.264 10.4897 15.5001C10.4967 15.7362 10.4168 15.9306 10.2502 16.0834C10.0974 16.2501 9.90294 16.3334 9.66683 16.3334C9.43072 16.3334 9.22933 16.2501 9.06266 16.0834Z" fill="currentColor"/>
</g>
</svg>
