<svg width="180" height="60" viewBox="0 0 180 60" fill="none" xmlns="http://www.w3.org/2000/svg">
<path d="M66.734 21.8996H74.1671C74.4121 21.8996 74.5755 22.0625 74.4938 22.3067C73.0235 30.8549 66.489 36.228 57.5856 36.228C46.9669 36.228 39.8606 28.9824 39.8606 18.0733C39.8606 7.24561 46.8852 0 57.5856 0C66.5706 0 73.1052 5.29174 74.4938 13.9213C74.4938 14.1656 74.3304 14.3284 74.1671 14.3284H66.734C66.5707 14.3284 66.4073 14.247 66.4073 14.0842C65.2637 9.68795 62.2415 6.91996 57.6673 6.91996C51.7862 6.91996 47.7838 11.3976 47.7838 18.0733C47.7838 24.8305 51.7862 29.3081 57.6673 29.3081C62.2415 29.3081 65.2637 26.5401 66.4073 22.1439C66.4073 21.9811 66.5707 21.8996 66.734 21.8996Z" fill="white"/>
<path d="M88.0531 7.32771V14.899C88.0531 14.9804 88.1348 15.0618 88.2165 15.0618H102.511C102.593 15.0618 102.674 15.1432 102.674 15.2246V21.3305C102.674 21.4119 102.593 21.4933 102.511 21.4933H88.2165C88.1348 21.4933 88.0531 21.5747 88.0531 21.6561V28.9017C88.0531 28.9831 88.1348 29.0645 88.2165 29.0645H104.716C104.798 29.0645 104.88 29.1459 104.88 29.2274V35.3332C104.88 35.4146 104.798 35.496 104.716 35.496H80.375C80.2934 35.496 80.2117 35.4146 80.2117 35.3332V0.896222C80.2117 0.81481 80.2934 0.733398 80.375 0.733398H104.716C104.798 0.733398 104.88 0.81481 104.88 0.896222V7.00207C104.88 7.08348 104.798 7.16489 104.716 7.16489H88.2165C88.1348 7.2463 88.0531 7.32771 88.0531 7.32771Z" fill="white"/>
<path d="M115.825 35.4146H107.82C107.739 35.4146 107.657 35.3332 107.657 35.1704L121.951 0.814808C121.951 0.733397 122.033 0.733398 122.115 0.733398H129.385C129.466 0.733398 129.548 0.733397 129.548 0.814808L143.842 35.1704C143.924 35.2518 143.842 35.4146 143.679 35.4146H135.674C135.592 35.4146 135.511 35.3332 135.511 35.3332L133.877 31.0184C133.305 29.3902 132.08 28.0876 130.61 27.2735C130.61 27.2735 123.095 23.2843 122.85 23.1215C122.442 22.8773 122.115 22.5516 122.033 22.1446C122.033 22.0632 122.115 21.9003 122.197 21.9003H130.201C130.283 21.9003 130.365 21.8189 130.365 21.6561L125.954 9.52582H125.791L116.07 35.2518C115.907 35.4146 115.825 35.4146 115.825 35.4146Z" fill="white"/>
<path d="M178.313 1.1401V35.0886C178.313 35.2514 178.149 35.4143 177.986 35.4143H172.187C172.105 35.4143 171.941 35.3328 171.941 35.2514L156.095 14.4916C156.014 14.4101 155.85 14.4101 155.85 14.573V35.0072C155.85 35.17 155.687 35.3328 155.523 35.3328H148.417C148.254 35.3328 148.09 35.17 148.09 35.0072V1.1401C148.09 0.977277 148.254 0.814453 148.417 0.814453H154.053C154.135 0.814453 154.298 0.895865 154.298 0.977276L170.144 22.1442C170.226 22.2256 170.471 22.2256 170.471 22.0628V1.1401C170.471 0.977277 170.635 0.814453 170.798 0.814453H177.904C178.149 0.814453 178.313 0.977277 178.313 1.1401Z" fill="white"/>
<path d="M17.8884 0.0800781C9.47516 0.0800781 3.10393 4.80193 0.898509 12.0475C0.816827 12.2918 0.980187 12.4546 1.22523 12.4546H8.90338C9.06675 12.4546 9.14842 12.3732 9.2301 12.2918C10.8637 8.87249 14.0493 6.83721 17.9701 6.83721C23.8512 6.83721 28.017 11.4777 28.017 18.1534C28.017 24.8291 23.8512 29.4695 17.9701 29.4695C12.2523 29.4695 8.24991 25.1547 7.92318 18.8861C7.8415 17.9906 7.59646 16.7694 5.96282 15.7924L1.06188 13.1059C0.898519 13.0245 0.653468 13.1059 0.571785 13.3501C0.245057 14.8155 0 16.4437 0 18.072C0 28.7368 7.26972 36.1453 17.9701 36.1453C28.5888 36.1453 35.9402 28.7368 35.9402 18.072C35.7768 7.4885 28.4254 0.0800781 17.8884 0.0800781Z" fill="white"/>
<path d="M4.49219 45.7527H0.326416V43.7988H11.0268V45.7527H6.86099V56.3362H4.49219V45.7527Z" fill="white"/>
<path d="M19.7666 52.2658H12.2518C12.4968 53.6498 13.7221 54.5453 15.3557 54.5453C16.4176 54.5453 17.3161 54.2197 17.9695 53.487L19.1948 54.871C18.2963 55.9293 16.9894 56.4178 15.3557 56.4178C12.1701 56.4178 10.0464 54.3825 10.0464 51.5331C10.0464 48.6837 12.1701 46.6484 15.029 46.6484C17.8062 46.6484 19.8483 48.6023 19.8483 51.6145C19.7666 51.7774 19.7666 52.103 19.7666 52.2658ZM12.2518 50.8004H17.7245C17.5611 49.4164 16.4993 48.4395 15.029 48.4395C13.477 48.4395 12.4152 49.4164 12.2518 50.8004Z" fill="white"/>
<path d="M20.9922 51.5331C20.9922 48.6837 23.1159 46.6484 26.2199 46.6484C28.0986 46.6484 29.5688 47.3811 30.304 48.8465L28.5886 49.8235C28.0169 48.928 27.1184 48.5209 26.2199 48.5209C24.5862 48.5209 23.2793 49.6607 23.2793 51.5331C23.2793 53.4056 24.5045 54.5453 26.2199 54.5453C27.2001 54.5453 28.0169 54.1383 28.5886 53.2428L30.304 54.2197C29.5688 55.6851 28.0986 56.4178 26.2199 56.4178C23.1159 56.4992 20.9922 54.4639 20.9922 51.5331Z" fill="white"/>
<path d="M41.3302 50.8822V56.3368H39.1248V51.1265C39.1248 49.4168 38.308 48.6027 36.8377 48.6027C35.2041 48.6027 34.1422 49.5797 34.1422 51.4521V56.2554H31.9368V42.9854H34.1422V47.7886C34.8773 46.9745 36.0209 46.5674 37.3278 46.5674C39.6149 46.6489 41.3302 48.0329 41.3302 50.8822Z" fill="white"/>
<path d="M53.2563 50.8818V56.3364H51.0508V51.1261C51.0508 49.4164 50.234 48.6023 48.7637 48.6023C47.1301 48.6023 46.0682 49.5792 46.0682 51.4517V56.255H43.8628V46.7298H45.9865V47.951C46.7217 47.0555 47.8652 46.6484 49.2538 46.6484C51.5409 46.6484 53.2563 48.0324 53.2563 50.8818Z" fill="white"/>
<path d="M54.9709 51.5331C54.9709 48.6837 57.0947 46.6484 60.0353 46.6484C63.0575 46.6484 65.1812 48.6837 65.1812 51.5331C65.1812 54.3825 63.0575 56.4178 60.0353 56.4178C57.0947 56.4992 54.9709 54.4639 54.9709 51.5331ZM62.8941 51.5331C62.8941 49.7421 61.6689 48.5209 60.0353 48.5209C58.4016 48.5209 57.1764 49.6607 57.1764 51.5331C57.1764 53.3242 58.4016 54.5453 60.0353 54.5453C61.6689 54.5453 62.8941 53.4056 62.8941 51.5331Z" fill="white"/>
<path d="M69.2664 43.0664H67.061V56.3364H69.2664V43.0664Z" fill="white"/>
<path d="M71.1443 51.5331C71.1443 48.6837 73.268 46.6484 76.2085 46.6484C79.2308 46.6484 81.3546 48.6837 81.3546 51.5331C81.3546 54.3825 79.2308 56.4178 76.2085 56.4178C73.268 56.4992 71.1443 54.4639 71.1443 51.5331ZM79.0674 51.5331C79.0674 49.7421 77.8422 48.5209 76.2085 48.5209C74.5749 48.5209 73.3497 49.6607 73.3497 51.5331C73.3497 53.3242 74.5749 54.5453 76.2085 54.5453C77.8422 54.5453 79.0674 53.4056 79.0674 51.5331Z" fill="white"/>
<path d="M92.7905 46.8113V54.9524C92.7905 58.4531 90.9935 59.9999 87.6445 59.9999C85.8475 59.9999 84.0505 59.5114 82.9887 58.6159L83.9688 56.9062C84.7856 57.6389 86.1743 58.046 87.4812 58.046C89.6049 58.046 90.5034 57.0691 90.5034 55.1152V54.6267C89.6865 55.5223 88.543 55.9293 87.3178 55.9293C84.5406 55.9293 82.4985 54.0569 82.4985 51.2889C82.4985 48.5209 84.6223 46.6484 87.3178 46.6484C88.6247 46.6484 89.8499 47.0555 90.6667 48.0324V46.7298H92.7905V46.8113ZM90.5851 51.2889C90.5851 49.6607 89.3598 48.6023 87.6445 48.6023C85.9292 48.6023 84.704 49.6607 84.704 51.2889C84.704 52.9171 85.9292 54.0569 87.6445 54.0569C89.3598 54.0569 90.5851 52.9171 90.5851 51.2889Z" fill="white"/>
<path d="M94.9954 43.8807C94.9954 43.148 95.5672 42.5781 96.4657 42.5781C97.3642 42.5781 97.936 43.148 97.936 43.8807C97.936 44.6948 97.3642 45.2647 96.4657 45.2647C95.6489 45.1833 94.9954 44.6134 94.9954 43.8807ZM95.3221 46.8115H97.5276V56.3366H95.3221V46.8115Z" fill="white"/>
<path d="M109.127 52.2658H101.612C101.857 53.6498 103.082 54.5453 104.716 54.5453C105.778 54.5453 106.676 54.2197 107.33 53.487L108.555 54.871C107.657 55.9293 106.35 56.4178 104.716 56.4178C101.53 56.4178 99.4067 54.3825 99.4067 51.5331C99.4067 48.6837 101.53 46.6484 104.389 46.6484C107.167 46.6484 109.209 48.6023 109.209 51.6145C109.209 51.7774 109.127 52.103 109.127 52.2658ZM101.612 50.8004H107.085C106.922 49.4164 105.86 48.4395 104.389 48.4395C102.837 48.4395 101.776 49.4164 101.612 50.8004Z" fill="white"/>
<path d="M110.025 55.4415L110.923 53.7318C111.74 54.3017 113.047 54.7088 114.272 54.7088C115.661 54.7088 116.314 54.3017 116.314 53.6504C116.314 51.8594 110.352 53.569 110.352 49.7427C110.352 47.9516 111.985 46.7305 114.599 46.7305C115.906 46.7305 117.295 47.0561 118.193 47.5446L117.295 49.2542C116.396 48.6843 115.498 48.5215 114.517 48.5215C113.129 48.5215 112.475 48.9286 112.475 49.5799C112.475 51.5337 118.438 49.8241 118.438 53.569C118.438 55.3601 116.805 56.4998 114.109 56.4998C112.557 56.4998 110.923 56.0114 110.025 55.4415Z" fill="white"/>
<path d="M134.203 49.9054H136.409V54.8715C135.102 55.9298 133.305 56.4997 131.508 56.4997C127.587 56.4997 124.728 53.8131 124.728 50.0682C124.728 46.3233 127.587 43.6367 131.508 43.6367C133.632 43.6367 135.347 44.3694 136.572 45.672L135.102 47.1374C134.122 46.1605 132.978 45.672 131.671 45.672C128.976 45.672 127.097 47.4631 127.097 50.0682C127.097 52.592 128.976 54.4644 131.671 54.4644C132.57 54.4644 133.468 54.3016 134.285 53.8131L134.203 49.9054Z" fill="white"/>
<path d="M144.413 46.6484V48.7651C144.25 48.7651 144.086 48.6837 143.923 48.6837C142.208 48.6837 141.146 49.6607 141.146 51.6145V56.255H138.94V46.7298H141.064V48.1138C141.636 47.2183 142.861 46.6484 144.413 46.6484Z" fill="white"/>
<path d="M145.148 51.5331C145.148 48.6837 147.272 46.6484 150.212 46.6484C153.234 46.6484 155.358 48.6837 155.358 51.5331C155.358 54.3825 153.234 56.4178 150.212 56.4178C147.353 56.4992 145.148 54.4639 145.148 51.5331ZM153.153 51.5331C153.153 49.7421 151.928 48.5209 150.294 48.5209C148.66 48.5209 147.435 49.6607 147.435 51.5331C147.435 53.3242 148.66 54.5453 150.294 54.5453C151.928 54.5453 153.153 53.4056 153.153 51.5331Z" fill="white"/>
<path d="M166.468 46.8119V56.337H164.344V55.1158C163.609 56.0114 162.466 56.4184 161.241 56.4184C158.79 56.4184 157.075 55.1158 157.075 52.185V46.7305H159.28V51.8594C159.28 53.569 160.097 54.3831 161.486 54.3831C163.038 54.3831 164.099 53.4062 164.099 51.5337V46.7305H166.468V46.8119Z" fill="white"/>
<path d="M179.211 51.5335C179.211 54.5457 177.168 56.4181 174.31 56.4181C173.084 56.4181 172.022 56.0111 171.206 55.1156V59.756H169V46.7302H171.124V47.9514C171.859 47.0558 173.003 46.5674 174.31 46.5674C177.087 46.6488 179.211 48.6027 179.211 51.5335ZM176.923 51.5335C176.923 49.7424 175.698 48.5213 174.065 48.5213C172.431 48.5213 171.206 49.661 171.206 51.5335C171.206 53.3245 172.431 54.5457 174.065 54.5457C175.698 54.5457 176.923 53.4059 176.923 51.5335Z" fill="white"/>
</svg>
