<svg width="227" height="76" viewBox="0 0 227 76" fill="none" xmlns="http://www.w3.org/2000/svg">
<path d="M84.5294 27.7396H93.9446C94.255 27.7396 94.462 27.9458 94.3585 28.2552C92.4962 39.0829 84.219 45.8889 72.9414 45.8889C59.4911 45.8889 50.4897 36.7111 50.4897 22.8929C50.4897 9.17777 59.3876 0 72.9414 0C84.3225 0 92.5996 6.70287 94.3585 17.6337C94.3585 17.9431 94.1516 18.1493 93.9446 18.1493H84.5294C84.3225 18.1493 84.1155 18.0462 84.1155 17.8399C82.667 12.2714 78.8389 8.76529 73.0449 8.76529C65.5955 8.76529 60.5257 14.4369 60.5257 22.8929C60.5257 31.4519 65.5955 37.1236 73.0449 37.1236C78.8389 37.1236 82.667 33.6175 84.1155 28.0489C84.1155 27.8427 84.3225 27.7396 84.5294 27.7396Z" fill="#00172D"/>
<path d="M111.534 9.28151V18.8718C111.534 18.9749 111.638 19.078 111.741 19.078H129.847C129.951 19.078 130.054 19.1811 130.054 19.2843V27.0183C130.054 27.1214 129.951 27.2246 129.847 27.2246H111.741C111.638 27.2246 111.534 27.3277 111.534 27.4308V36.6086C111.534 36.7117 111.638 36.8148 111.741 36.8148H132.641C132.744 36.8148 132.848 36.9179 132.848 37.0211V44.7551C132.848 44.8583 132.744 44.9614 132.641 44.9614H101.809C101.705 44.9614 101.602 44.8583 101.602 44.7551V1.13495C101.602 1.03183 101.705 0.928711 101.809 0.928711H132.641C132.744 0.928711 132.848 1.03183 132.848 1.13495V8.86903C132.848 8.97215 132.744 9.07527 132.641 9.07527H111.741C111.638 9.17839 111.534 9.28151 111.534 9.28151Z" fill="#00172D"/>
<path d="M146.712 44.8583H136.573C136.469 44.8583 136.366 44.7551 136.366 44.5489L154.472 1.03183C154.472 0.928709 154.575 0.928711 154.679 0.928711H163.887C163.991 0.928711 164.094 0.928709 164.094 1.03183L182.201 44.5489C182.304 44.652 182.201 44.8583 181.994 44.8583H171.854C171.751 44.8583 171.647 44.7551 171.647 44.7551L169.578 39.2897C168.854 37.2273 167.302 35.5774 165.439 34.5462C165.439 34.5462 155.921 29.4932 155.61 29.287C155.093 28.9776 154.679 28.5651 154.576 28.0495C154.576 27.9464 154.679 27.7402 154.782 27.7402H164.922C165.025 27.7402 165.129 27.637 165.129 27.4308L159.542 12.0658H159.335L147.023 44.652C146.816 44.8582 146.712 44.8583 146.712 44.8583Z" fill="#00172D"/>
<path d="M225.863 1.44374V44.4452C225.863 44.6514 225.656 44.8577 225.449 44.8577H218.103C217.999 44.8577 217.793 44.7545 217.793 44.6514L197.721 18.3556C197.617 18.2525 197.41 18.2524 197.41 18.4587V44.3421C197.41 44.5483 197.203 44.7545 196.996 44.7545H187.995C187.788 44.7545 187.581 44.5483 187.581 44.3421V1.44374C187.581 1.23749 187.788 1.03125 187.995 1.03125H195.134C195.237 1.03125 195.444 1.13437 195.444 1.23749L215.516 28.0489C215.62 28.1521 215.93 28.1521 215.93 27.9458V1.44374C215.93 1.23749 216.137 1.03125 216.344 1.03125H225.345C225.656 1.03125 225.863 1.23749 225.863 1.44374Z" fill="#00172D"/>
<path d="M22.6587 0.101562C12.0019 0.101562 3.93164 6.08257 1.13811 15.2603C1.03465 15.5697 1.24157 15.7759 1.55196 15.7759H11.2776C11.4845 15.7759 11.588 15.6728 11.6915 15.5697C13.7607 11.2386 17.7958 8.6606 22.7621 8.6606C30.2115 8.6606 35.4882 14.5385 35.4882 22.9944C35.4882 31.4503 30.2115 37.3282 22.7621 37.3282C15.5196 37.3282 10.4499 31.8628 10.036 23.9225C9.93257 22.7882 9.62218 21.2414 7.5529 20.0039L1.34505 16.6009C1.13812 16.4978 0.827726 16.6009 0.724262 16.9103C0.310405 18.7664 0 20.8289 0 22.8913C0 36.4001 9.20831 45.7841 22.7621 45.7841C36.2124 45.7841 45.5242 36.4001 45.5242 22.8913C45.3173 9.48557 36.0055 0.101562 22.6587 0.101562Z" fill="#00172D"/>
<path d="M5.69022 57.9544H0.413574V55.4795H13.9674V57.9544H8.69071V71.3601H5.69022V57.9544Z" fill="#FF7300"/>
<path d="M25.0378 66.2032H15.5191C15.8295 67.9563 17.3815 69.0906 19.4508 69.0906C20.7958 69.0906 21.9339 68.6781 22.7616 67.7501L24.3136 69.5031C23.1754 70.8437 21.52 71.4624 19.4508 71.4624C15.4157 71.4624 12.7256 68.8844 12.7256 65.2752C12.7256 61.6659 15.4157 59.0879 19.0369 59.0879C22.5547 59.0879 25.1413 61.5628 25.1413 65.3783C25.0378 65.5845 25.0378 65.997 25.0378 66.2032ZM15.5191 64.3471H22.4512C22.2443 62.594 20.8993 61.3566 19.0369 61.3566C17.0711 61.3566 15.726 62.594 15.5191 64.3471Z" fill="#FF7300"/>
<path d="M26.5898 65.2752C26.5898 61.6659 29.2799 59.0879 33.2116 59.0879C35.5912 59.0879 37.4536 60.016 38.3848 61.8722L36.212 63.1096C35.4878 61.9753 34.3497 61.4597 33.2116 61.4597C31.1423 61.4597 29.4868 62.9034 29.4868 65.2752C29.4868 67.6469 31.0388 69.0906 33.2116 69.0906C34.4531 69.0906 35.4878 68.575 36.212 67.4407L38.3848 68.6781C37.4536 70.5343 35.5912 71.4624 33.2116 71.4624C29.2799 71.5655 26.5898 68.9875 26.5898 65.2752Z" fill="#FF7300"/>
<path d="M52.3515 64.45V71.3591H49.558V64.7594C49.558 62.5938 48.5233 61.5626 46.661 61.5626C44.5917 61.5626 43.2467 62.8001 43.2467 65.1718V71.256H40.4531V54.4473H43.2467V60.5314C44.1779 59.5002 45.6263 58.9846 47.2818 58.9846C50.1788 59.0877 52.3515 60.8408 52.3515 64.45Z" fill="#FF7300"/>
<path d="M67.458 64.4502V71.3593H64.6644V64.7595C64.6644 62.594 63.6298 61.5628 61.7674 61.5628C59.6981 61.5628 58.3531 62.8002 58.3531 65.172V71.2562H55.5596V59.191H58.2496V60.7378C59.1808 59.6035 60.6293 59.0879 62.3882 59.0879C65.2852 59.0879 67.458 60.841 67.458 64.4502Z" fill="#FF7300"/>
<path d="M69.6299 65.2752C69.6299 61.6659 72.32 59.0879 76.0447 59.0879C79.8729 59.0879 82.5629 61.6659 82.5629 65.2752C82.5629 68.8844 79.8729 71.4624 76.0447 71.4624C72.32 71.5655 69.6299 68.9875 69.6299 65.2752ZM79.6659 65.2752C79.6659 63.0065 78.114 61.4597 76.0447 61.4597C73.9754 61.4597 72.4234 62.9034 72.4234 65.2752C72.4234 67.5438 73.9754 69.0906 76.0447 69.0906C78.114 69.0906 79.6659 67.6469 79.6659 65.2752Z" fill="#FF7300"/>
<path d="M87.7374 54.5508H84.9438V71.3595H87.7374V54.5508Z" fill="#FF7300"/>
<path d="M90.1162 65.2752C90.1162 61.6659 92.8062 59.0879 96.5309 59.0879C100.359 59.0879 103.049 61.6659 103.049 65.2752C103.049 68.8844 100.359 71.4624 96.5309 71.4624C92.8062 71.5655 90.1162 68.9875 90.1162 65.2752ZM100.152 65.2752C100.152 63.0065 98.6002 61.4597 96.5309 61.4597C94.4617 61.4597 92.9097 62.9034 92.9097 65.2752C92.9097 67.5438 94.4617 69.0906 96.5309 69.0906C98.6002 69.0906 100.152 67.6469 100.152 65.2752Z" fill="#FF7300"/>
<path d="M117.535 59.2941V69.6062C117.535 74.0404 115.258 75.9997 111.016 75.9997C108.74 75.9997 106.464 75.381 105.119 74.2467L106.36 72.0811C107.395 73.0092 109.154 73.5248 110.809 73.5248C113.499 73.5248 114.637 72.2874 114.637 69.8125V69.1937C113.603 70.3281 112.154 70.8437 110.602 70.8437C107.085 70.8437 104.498 68.4719 104.498 64.9658C104.498 61.4597 107.188 59.0879 110.602 59.0879C112.258 59.0879 113.81 59.6035 114.844 60.8409V59.191H117.535V59.2941ZM114.741 64.9658C114.741 62.9034 113.189 61.5628 111.016 61.5628C108.844 61.5628 107.292 62.9034 107.292 64.9658C107.292 67.0282 108.844 68.4719 111.016 68.4719C113.189 68.4719 114.741 67.0282 114.741 64.9658Z" fill="#FF7300"/>
<path d="M120.328 55.5826C120.328 54.6545 121.052 53.9326 122.19 53.9326C123.328 53.9326 124.052 54.6545 124.052 55.5826C124.052 56.6138 123.328 57.3356 122.19 57.3356C121.155 57.2325 120.328 56.5106 120.328 55.5826ZM120.742 59.2949H123.535V71.3601H120.742V59.2949Z" fill="#FF7300"/>
<path d="M138.227 66.2032H128.709C129.019 67.9563 130.571 69.0906 132.64 69.0906C133.985 69.0906 135.123 68.6781 135.951 67.7501L137.503 69.5031C136.365 70.8437 134.709 71.4624 132.64 71.4624C128.605 71.4624 125.915 68.8844 125.915 65.2752C125.915 61.6659 128.605 59.0879 132.226 59.0879C135.744 59.0879 138.331 61.5628 138.331 65.3783C138.331 65.5845 138.227 65.997 138.227 66.2032ZM128.709 64.3471H135.641C135.434 62.594 134.089 61.3566 132.226 61.3566C130.261 61.3566 128.916 62.594 128.709 64.3471Z" fill="#FF7300"/>
<path d="M139.365 70.2254L140.503 68.0598C141.538 68.7817 143.193 69.2973 144.745 69.2973C146.504 69.2973 147.332 68.7817 147.332 67.9567C147.332 65.688 139.779 67.8536 139.779 63.0069C139.779 60.7382 141.848 59.1914 145.159 59.1914C146.815 59.1914 148.574 59.6039 149.712 60.2226L148.574 62.3882C147.436 61.6663 146.297 61.4601 145.056 61.4601C143.297 61.4601 142.469 61.9757 142.469 62.8006C142.469 65.2755 150.022 63.11 150.022 67.8536C150.022 70.1222 147.953 71.5659 144.538 71.5659C142.573 71.5659 140.503 70.9472 139.365 70.2254Z" fill="#FF7300"/>
<path d="M169.991 63.2128H172.785V69.5032C171.129 70.8437 168.853 71.5656 166.577 71.5656C161.61 71.5656 157.989 68.1626 157.989 63.419C157.989 58.6755 161.61 55.2725 166.577 55.2725C169.267 55.2725 171.44 56.2005 172.991 57.8505L171.129 59.7067C169.888 58.4692 168.439 57.8505 166.784 57.8505C163.369 57.8505 160.99 60.1191 160.99 63.419C160.99 66.6158 163.369 68.9875 166.784 68.9875C167.922 68.9875 169.06 68.7813 170.095 68.1626L169.991 63.2128Z" fill="#FF7300"/>
<path d="M182.923 59.0879V61.769C182.716 61.769 182.509 61.6659 182.303 61.6659C180.13 61.6659 178.785 62.9034 178.785 65.3783V71.2562H175.991V59.191H178.681V60.9441C179.406 59.8097 180.957 59.0879 182.923 59.0879Z" fill="#FF7300"/>
<path d="M183.854 65.2752C183.854 61.6659 186.544 59.0879 190.269 59.0879C194.097 59.0879 196.787 61.6659 196.787 65.2752C196.787 68.8844 194.097 71.4624 190.269 71.4624C186.648 71.5655 183.854 68.9875 183.854 65.2752ZM193.993 65.2752C193.993 63.0065 192.441 61.4597 190.372 61.4597C188.303 61.4597 186.751 62.9034 186.751 65.2752C186.751 67.5438 188.303 69.0906 190.372 69.0906C192.441 69.0906 193.993 67.6469 193.993 65.2752Z" fill="#FF7300"/>
<path d="M210.86 59.2945V71.3597H208.17V69.8129C207.239 70.9472 205.79 71.4628 204.238 71.4628C201.134 71.4628 198.961 69.8129 198.961 66.1005V59.1914H201.755V65.688C201.755 67.8536 202.79 68.8848 204.549 68.8848C206.514 68.8848 207.859 67.6473 207.859 65.2755V59.1914H210.86V59.2945Z" fill="#FF7300"/>
<path d="M227 65.2757C227 69.0912 224.413 71.463 220.792 71.463C219.24 71.463 217.895 70.9474 216.86 69.8131V75.6909H214.067V59.1916H216.757V60.7384C217.688 59.6041 219.137 58.9854 220.792 58.9854C224.31 59.0885 227 61.5634 227 65.2757ZM224.103 65.2757C224.103 63.0071 222.551 61.4603 220.482 61.4603C218.412 61.4603 216.86 62.9039 216.86 65.2757C216.86 67.5444 218.412 69.0912 220.482 69.0912C222.551 69.0912 224.103 67.6475 224.103 65.2757Z" fill="#FF7300"/>
</svg>
