<svg width="28" height="28" viewBox="0 0 28 28" fill="none" xmlns="http://www.w3.org/2000/svg">
<mask id="mask0_920_4829" style="mask-type:alpha" maskUnits="userSpaceOnUse" x="4" y="4" width="20" height="20">
<rect x="4" y="4" width="20" height="20" fill="white"/>
</mask>
<g mask="url(#mask0_920_4829)">
<path d="M14.0002 15.1663L9.91683 19.2497C9.76405 19.4025 9.56961 19.4788 9.3335 19.4788C9.09739 19.4788 8.90294 19.4025 8.75016 19.2497C8.59738 19.0969 8.521 18.9025 8.521 18.6663C8.521 18.4302 8.59738 18.2358 8.75016 18.083L12.8335 13.9997L8.75016 9.91634C8.59738 9.76356 8.521 9.56912 8.521 9.33301C8.521 9.0969 8.59738 8.90245 8.75016 8.74967C8.90294 8.5969 9.09739 8.52051 9.3335 8.52051C9.56961 8.52051 9.76405 8.5969 9.91683 8.74967L14.0002 12.833L18.0835 8.74967C18.2363 8.5969 18.4307 8.52051 18.6668 8.52051C18.9029 8.52051 19.0974 8.5969 19.2502 8.74967C19.4029 8.90245 19.4793 9.0969 19.4793 9.33301C19.4793 9.56912 19.4029 9.76356 19.2502 9.91634L15.1668 13.9997L19.2502 18.083C19.4029 18.2358 19.4793 18.4302 19.4793 18.6663C19.4793 18.9025 19.4029 19.0969 19.2502 19.2497C19.0974 19.4025 18.9029 19.4788 18.6668 19.4788C18.4307 19.4788 18.2363 19.4025 18.0835 19.2497L14.0002 15.1663Z" fill="#26496B"/>
</g>
</svg>
