<svg width="12" height="7" viewBox="0 0 12 7" fill="none" xmlns="http://www.w3.org/2000/svg">
<path d="M6.00015 6.94976C5.86682 6.94976 5.74182 6.92893 5.62515 6.88726C5.50849 6.8456 5.40015 6.77476 5.30015 6.67476L0.675153 2.04976C0.49182 1.86643 0.40432 1.63726 0.412653 1.36226C0.420986 1.08726 0.51682 0.858096 0.700153 0.674762C0.883486 0.491429 1.11682 0.399762 1.40015 0.399762C1.68349 0.399762 1.91682 0.491429 2.10015 0.674762L6.00015 4.57476L9.92515 0.649762C10.1085 0.466429 10.3377 0.378929 10.6127 0.387262C10.8877 0.395596 11.1168 0.491429 11.3002 0.674762C11.4835 0.858096 11.5752 1.09143 11.5752 1.37476C11.5752 1.6581 11.4835 1.89143 11.3002 2.07476L6.70015 6.67476C6.60015 6.77476 6.49182 6.8456 6.37515 6.88726C6.25849 6.92893 6.13349 6.94976 6.00015 6.94976Z" fill="#26496B"/>
</svg>
