<svg width="80" height="16" viewBox="0 0 80 16" fill="none" xmlns="http://www.w3.org/2000/svg">
<path d="M33.1118 9.67294H29.8007C29.7364 9.67294 29.6721 9.72052 29.656 9.7998C29.1416 11.7185 27.8075 12.9554 25.7662 12.9554C23.1301 12.9554 21.362 10.9732 21.362 7.99207C21.362 5.04262 23.1301 3.0446 25.7662 3.0446C27.8075 3.0446 29.1416 4.26561 29.656 6.2002C29.6721 6.27948 29.7524 6.32706 29.8167 6.32706H33.1118C33.2083 6.32706 33.2887 6.23191 33.2726 6.13677C32.6296 2.33102 29.7203 0 25.7179 0C20.9762 0 17.8257 3.18731 17.8257 7.99207C17.8257 12.781 20.9762 16 25.7179 16C29.7203 16 32.6296 13.6531 33.2726 9.86323C33.2887 9.76809 33.2083 9.67294 33.1118 9.67294Z" fill="white"/>
<path d="M39.3324 6.59663V3.25075C39.3324 3.21903 39.3645 3.18732 39.3967 3.18732H46.7584C46.7906 3.18732 46.8227 3.1556 46.8227 3.12389V0.412292C46.8227 0.380578 46.7906 0.348863 46.7584 0.348863H35.8926C35.8604 0.348863 35.8283 0.380578 35.8283 0.412292V15.5877C35.8283 15.6194 35.8604 15.6511 35.8926 15.6511H46.7584C46.7906 15.6511 46.8227 15.6194 46.8227 15.5877V12.8761C46.8227 12.8444 46.7906 12.8127 46.7584 12.8127H39.3967C39.3645 12.8127 39.3324 12.781 39.3324 12.7493V9.54609C39.3324 9.51437 39.3645 9.48266 39.3967 9.48266H45.7618C45.794 9.48266 45.8261 9.45094 45.8261 9.41923V6.72349C45.8261 6.69178 45.794 6.66006 45.7618 6.66006H39.3967C39.3645 6.66006 39.3324 6.62835 39.3324 6.59663Z" fill="white"/>
<path d="M51.7092 15.667H48.1408C48.0926 15.667 48.0604 15.6194 48.0765 15.5719L54.4738 0.396435C54.4899 0.364721 54.506 0.348863 54.5381 0.348863H57.769C57.8011 0.348863 57.8332 0.364721 57.8332 0.396435L64.1984 15.5719C64.2145 15.6194 64.1824 15.667 64.1341 15.667H60.5658C60.5336 15.667 60.5015 15.6511 60.5015 15.6194L59.7782 13.7324C59.5049 13.0188 58.9906 12.4321 58.3155 12.0674C58.3155 12.0674 54.9561 10.3072 54.8435 10.228C54.6667 10.117 54.5221 9.95838 54.4738 9.79981C54.4578 9.75223 54.4899 9.70466 54.5381 9.70466L58.1065 9.72052C58.1547 9.72052 58.1869 9.67295 58.1708 9.62538L56.1937 4.28147H56.1294L51.7735 15.6353C51.7735 15.6511 51.7413 15.667 51.7092 15.667Z" fill="white"/>
<path d="M79.6131 15.5084V0.507436C79.6131 0.42815 79.5488 0.348863 79.4684 0.348863H76.2858C76.1894 0.348863 76.1251 0.42815 76.1251 0.507436V9.73638C76.1251 9.81566 76.0447 9.83152 75.9965 9.78395L68.8758 0.412292C68.8437 0.380578 68.7955 0.348863 68.7473 0.348863H66.2076C66.1112 0.348863 66.0469 0.42815 66.0469 0.507436V15.5084C66.0469 15.6036 66.1272 15.667 66.2076 15.667H69.3902C69.4866 15.667 69.5509 15.6036 69.5509 15.5084V6.46978C69.5509 6.4222 69.6313 6.39049 69.6635 6.43806L76.752 15.6036C76.7841 15.6511 76.8323 15.667 76.8806 15.667H79.4523C79.5488 15.667 79.6131 15.6036 79.6131 15.5084Z" fill="white"/>
<path d="M8.00471 0.0158369C4.22739 0.0158369 1.41449 2.09314 0.401843 5.29631C0.369695 5.39146 0.450064 5.4866 0.546506 5.4866H3.95413C4.01843 5.4866 4.06665 5.45489 4.08272 5.40731C4.82211 3.91673 6.22053 2.98115 7.98864 2.98115C10.6086 2.98115 12.4732 5.0426 12.4732 7.99205C12.4732 10.9415 10.6086 13.003 7.98864 13.003C5.44899 13.003 3.64873 11.1001 3.52014 8.34091C3.50407 7.94448 3.37548 7.38947 2.63609 6.97719L0.466138 5.80375C0.385769 5.75617 0.273253 5.80375 0.241106 5.89889C0.0803685 6.5649 0 7.26262 0 8.00791C0 12.7175 3.26296 15.9841 8.00471 15.9841C12.7304 15.9841 16.0094 12.7017 16.0094 8.00791C16.0094 3.31415 12.7304 0.0158369 8.00471 0.0158369Z" fill="white"/>
</svg>
