<svg width="32" height="32" viewBox="0 0 32 32" fill="none" xmlns="http://www.w3.org/2000/svg">
<mask id="mask0_837_5612" style="mask-type:alpha" maskUnits="userSpaceOnUse" x="4" y="4" width="24" height="24">
<rect x="4" y="4" width="24" height="24" fill="white"/>
</mask>
<g mask="url(#mask0_837_5612)">
<path d="M16 26.0005C14.75 26.0005 13.5792 25.763 12.4875 25.288C11.3958 24.813 10.4458 24.1713 9.6375 23.363C8.82917 22.5547 8.1875 21.6047 7.7125 20.513C7.2375 19.4213 7 18.2505 7 17.0005C7 16.7172 7.09583 16.4797 7.2875 16.288C7.47917 16.0963 7.71667 16.0005 8 16.0005C8.28333 16.0005 8.52083 16.0963 8.7125 16.288C8.90417 16.4797 9 16.7172 9 17.0005C9 18.9505 9.67917 20.6047 11.0375 21.963C12.3958 23.3213 14.05 24.0005 16 24.0005C17.95 24.0005 19.6042 23.3213 20.9625 21.963C22.3208 20.6047 23 18.9505 23 17.0005C23 15.0505 22.3208 13.3963 20.9625 12.038C19.6042 10.6797 17.95 10.0005 16 10.0005H15.85L16.7 10.8505C16.9 11.0505 16.9958 11.2838 16.9875 11.5505C16.9792 11.8172 16.8833 12.0505 16.7 12.2505C16.5 12.4505 16.2625 12.5547 15.9875 12.563C15.7125 12.5713 15.475 12.4755 15.275 12.2755L12.7 9.7005C12.5 9.5005 12.4 9.26717 12.4 9.0005C12.4 8.73383 12.5 8.5005 12.7 8.3005L15.275 5.7255C15.475 5.5255 15.7125 5.42967 15.9875 5.438C16.2625 5.44633 16.5 5.5505 16.7 5.7505C16.8833 5.9505 16.9792 6.18383 16.9875 6.4505C16.9958 6.71717 16.9 6.9505 16.7 7.1505L15.85 8.0005H16C17.25 8.0005 18.4208 8.238 19.5125 8.713C20.6042 9.188 21.5542 9.82967 22.3625 10.638C23.1708 11.4463 23.8125 12.3963 24.2875 13.488C24.7625 14.5797 25 15.7505 25 17.0005C25 18.2505 24.7625 19.4213 24.2875 20.513C23.8125 21.6047 23.1708 22.5547 22.3625 23.363C21.5542 24.1713 20.6042 24.813 19.5125 25.288C18.4208 25.763 17.25 26.0005 16 26.0005Z" fill="#32D17E"/>
</g>
</svg>
