<svg width="16" height="16" viewBox="0 0 16 16" fill="none" xmlns="http://www.w3.org/2000/svg">
<path d="M7.9999 15.9998C7.71657 15.9998 7.47907 15.904 7.2874 15.7123C7.09574 15.5206 6.9999 15.2831 6.9999 14.9998V3.8248L2.1249 8.69981C1.9249 8.89981 1.6874 8.9998 1.4124 8.9998C1.1374 8.9998 0.899902 8.89981 0.699902 8.69981C0.499902 8.49981 0.399902 8.26647 0.399902 7.9998C0.399902 7.73314 0.499902 7.4998 0.699902 7.2998L7.2999 0.699805C7.3999 0.599805 7.50824 0.528971 7.6249 0.487305C7.74157 0.445638 7.86657 0.424805 7.9999 0.424805C8.13324 0.424805 8.2624 0.445638 8.3874 0.487305C8.5124 0.528971 8.61657 0.599805 8.6999 0.699805L15.2999 7.2998C15.4999 7.4998 15.5999 7.73314 15.5999 7.9998C15.5999 8.26647 15.4999 8.49981 15.2999 8.69981C15.0999 8.89981 14.8624 8.9998 14.5874 8.9998C14.3124 8.9998 14.0749 8.89981 13.8749 8.69981L8.9999 3.8248V14.9998C8.9999 15.2831 8.90407 15.5206 8.7124 15.7123C8.52074 15.904 8.28324 15.9998 7.9999 15.9998Z" fill="#26496B"/>
</svg>
